<?xml version="1.0" encoding="iso-8859-1"?>
<!-- Generator: Adobe Illustrator 19.0.0, SVG Export Plug-In . SVG Version: 6.00 Build 0)  -->
<svg version="1.1" id="Layer_1" xmlns="http://www.w3.org/2000/svg" xmlns:xlink="http://www.w3.org/1999/xlink" x="0px" y="0px"
	 viewBox="0 0 512 512" style="enable-background:new 0 0 512 512;" xml:space="preserve">
<circle style="fill:#273B7A;" cx="256" cy="256" r="256"/>
<path style="fill:#121149;" d="M274.72,511.316c110.182-7.964,201.023-85.657,228.633-189.169l-99.949-99.949l-0.384,0.378
	l-37.431-37.431l-42.744,76.991L151.847,388.887L274.72,511.316z"/>
<path style="fill:#FEE187;" d="M297.617,118.153H163.252c-8.757,0-15.858,7.099-15.858,15.858v243.977
	c0,8.757,7.099,15.858,15.858,15.858H348.75c8.757,0,15.858-7.099,15.858-15.858V185.142L297.617,118.153z"/>
<path style="fill:#FFC61B;" d="M297.617,118.153h-41.043v275.692h92.174c8.757,0,15.856-7.099,15.856-15.858V185.142
	L297.617,118.153z"/>
<path style="fill:#EAA22F;" d="M313.475,185.142h51.131l-66.989-66.989v51.131C297.617,178.043,304.718,185.142,313.475,185.142z"/>
<path style="fill:#273B7A;" d="M359.771,203.271c-7.845-7.845-20.566-7.845-28.412,0L208.725,325.904l7.147,35.733l151.133-151.133
	L359.771,203.271z"/>
<path style="fill:#121149;" d="M376.972,220.472l-9.968-9.968L215.871,361.637l0.455,2.279l38.01,7.602L376.97,248.885
	C384.817,241.04,384.817,228.319,376.972,220.472z"/>
<polygon style="fill:#E09112;" points="254.338,371.519 201.123,379.121 208.725,325.906 "/>
<polygon style="fill:#FF5419;" points="201.29,377.942 201.123,379.121 254.338,371.519 231.026,348.207 "/>
<polygon style="fill:#59595B;" points="223.296,375.953 204.29,356.948 201.123,379.121 "/>
<polygon style="fill:#272525;" points="201.29,377.942 201.123,379.121 223.296,375.953 213.287,365.946 "/>
<rect x="273.984" y="220.245" transform="matrix(-0.7071 -0.7071 0.7071 -0.7071 277.1227 705.7906)" style="fill:#386895;" width="21.502" height="150.513"/>
<rect x="282.547" y="223.791" transform="matrix(0.7071 0.7071 -0.7071 0.7071 295.8935 -116.2558)" style="fill:#273B7A;" width="11.466" height="150.513"/>
<path style="fill:#E09112;" d="M376.972,248.885c7.845-7.845,7.845-20.566,0-28.412l-17.201-17.201
	c-7.845-7.845-20.566-7.845-28.412,0l-18.506,18.506l45.613,45.613L376.972,248.885z"/>
<path style="fill:#FF5419;" d="M367.866,211.366l-32.713,32.713l23.312,23.312l18.506-18.506c7.845-7.845,7.845-20.566,0-28.412
	L367.866,211.366z"/>
<g>
</g>
<g>
</g>
<g>
</g>
<g>
</g>
<g>
</g>
<g>
</g>
<g>
</g>
<g>
</g>
<g>
</g>
<g>
</g>
<g>
</g>
<g>
</g>
<g>
</g>
<g>
</g>
<g>
</g>
</svg>
