<?xml version="1.0" encoding="iso-8859-1"?>
<!-- Generator: Adobe Illustrator 19.0.0, SVG Export Plug-In . SVG Version: 6.00 Build 0)  -->
<svg version="1.1" id="Layer_1" xmlns="http://www.w3.org/2000/svg" xmlns:xlink="http://www.w3.org/1999/xlink" x="0px" y="0px"
	 viewBox="0 0 512 512" style="enable-background:new 0 0 512 512;" xml:space="preserve">
<circle style="fill:#71E2EF;" cx="256" cy="256" r="256"/>
<path style="fill:#38C6D9;" d="M506.025,311.151L356.848,161.975L254.897,302.016l-0.455-0.455l-94.168,93.298l116.315,116.315
	C389.787,502.165,482.226,419.521,506.025,311.151z"/>
<path style="fill:#386895;" d="M294.645,99.771H169.875c-8.132,0-14.724,6.592-14.724,14.724v269.217
	c0,8.132,6.592,14.726,14.724,14.726h172.247c8.132,0,14.726-6.592,14.726-14.726V161.975L294.645,99.771z"/>
<path style="fill:#273B7A;" d="M294.645,99.771h-39.219v298.667h86.699c8.132,0,14.726-6.592,14.726-14.726V161.975L294.645,99.771z
	"/>
<path style="fill:#121149;" d="M309.369,161.975h47.48l-62.204-62.204v47.48C294.645,155.383,301.237,161.975,309.369,161.975z"/>
<path style="fill:#FFC61B;" d="M210.603,341.333h90.793c6.347,0,11.493-5.146,11.493-11.493v-62.348
	c0-6.347-5.146-11.493-11.493-11.493h-90.793c-6.347,0-11.492,5.146-11.492,11.493v62.348
	C199.111,336.187,204.257,341.333,210.603,341.333z"/>
<path style="fill:#EAA22F;" d="M301.396,256h-45.971v85.333h45.971c6.347,0,11.493-5.146,11.493-11.493v-62.348
	C312.889,261.146,307.743,256,301.396,256z"/>
<g>
</g>
<g>
</g>
<g>
</g>
<g>
</g>
<g>
</g>
<g>
</g>
<g>
</g>
<g>
</g>
<g>
</g>
<g>
</g>
<g>
</g>
<g>
</g>
<g>
</g>
<g>
</g>
<g>
</g>
</svg>
